<svg xmlns="http://www.w3.org/2000/svg" xmlns:xlink="http://www.w3.org/1999/xlink" width="500" zoomAndPan="magnify" viewBox="0 0 375 374.999991" height="500" preserveAspectRatio="xMidYMid meet" version="1.0"><defs><clipPath id="13238fe342"><path d="M 22.734375 0 L 351.984375 0 L 351.984375 375 L 22.734375 375 Z M 22.734375 0 " clip-rule="nonzero"/></clipPath></defs><path fill="#ffffff" d="M 201.511719 53.03125 C 191.714844 48.132812 178.941406 45.4375 165.53125 45.4375 C 152.125 45.4375 139.34375 48.132812 129.550781 53.03125 C 117.335938 59.132812 110.609375 68.140625 110.609375 78.390625 C 110.609375 88.632812 117.335938 97.640625 129.550781 103.746094 C 139.34375 108.640625 152.125 111.34375 165.53125 111.34375 C 178.941406 111.34375 191.714844 108.640625 201.511719 103.746094 C 213.726562 97.640625 220.453125 88.632812 220.453125 78.390625 C 220.453125 68.140625 213.726562 59.132812 201.511719 53.03125 Z M 191.6875 84.09375 C 184.984375 87.449219 175.449219 89.375 165.53125 89.375 C 155.613281 89.375 146.082031 87.449219 139.375 84.09375 C 133.757812 81.292969 132.578125 78.765625 132.578125 78.390625 C 132.578125 78.007812 133.757812 75.484375 139.375 72.679688 C 146.082031 69.324219 155.613281 67.40625 165.53125 67.40625 C 175.449219 67.40625 184.984375 69.324219 191.6875 72.679688 C 197.300781 75.484375 198.484375 78.007812 198.484375 78.390625 C 198.484375 78.765625 197.300781 81.292969 191.6875 84.09375 Z M 191.6875 84.09375 " fill-opacity="1" fill-rule="nonzero"/><g clip-path="url(#13238fe342)"><path fill="#ffffff" d="M 266.5625 309.0625 C 269.511719 307.492188 272.359375 305.851562 275.0625 304.136719 C 296.515625 290.507812 308.328125 272.753906 308.328125 254.140625 C 308.328125 238.546875 300.3125 223.828125 285.09375 211.363281 C 284.019531 207.214844 282.269531 203.152344 279.875 199.253906 C 283.339844 193.640625 285.445312 187.703125 286.117188 181.546875 C 286.121094 181.503906 286.128906 181.460938 286.132812 181.421875 C 287.050781 172.742188 285.113281 164.25 280.496094 156.328125 L 280.476562 156.335938 C 280.28125 155.996094 280.078125 155.65625 279.871094 155.320312 C 284.140625 148.410156 286.359375 141.003906 286.359375 133.3125 C 286.359375 129.347656 285.757812 125.433594 284.570312 121.605469 C 300.039062 109.140625 308.328125 94.273438 308.328125 78.390625 C 308.328125 56.375 292.503906 36.097656 263.769531 21.289062 C 237.171875 7.582031 202.28125 0.03125 165.53125 0.03125 C 128.78125 0.03125 93.890625 7.582031 67.292969 21.289062 C 38.5625 36.097656 22.734375 56.375 22.734375 78.390625 C 22.734375 94.273438 31.023438 109.140625 46.492188 121.605469 C 45.304688 125.433594 44.703125 129.347656 44.703125 133.3125 C 44.703125 141.003906 46.925781 148.410156 51.195312 155.320312 C 50.984375 155.65625 50.78125 155.996094 50.582031 156.335938 L 50.566406 156.332031 C 45.554688 164.933594 43.84375 174.007812 45.105469 182.851562 C 45.125 182.992188 45.152344 183.125 45.171875 183.265625 C 46.023438 188.808594 48.046875 194.164062 51.1875 199.253906 C 48.792969 203.152344 47.042969 207.21875 45.96875 211.363281 C 30.75 223.828125 22.734375 238.546875 22.734375 254.140625 C 22.734375 273.878906 35.867188 292.441406 59.714844 306.398438 C 80.292969 318.445312 108.148438 326.660156 138.53125 329.695312 C 151.09375 356.902344 177.582031 374.964844 208.042969 374.964844 L 352.265625 374.964844 L 352.265625 309.0625 Z M 281.734375 239.773438 C 284.5 244.046875 286.359375 248.878906 286.359375 254.140625 C 286.359375 264.964844 278.160156 276.140625 263.28125 285.59375 C 247.539062 295.59375 225.417969 302.984375 200.671875 306.570312 C 198.683594 304.914062 197.253906 302.53125 196.78125 299.757812 C 195.859375 294.273438 194.78125 289.917969 193.339844 285.410156 C 236.84375 280.078125 269.992188 262.628906 281.734375 239.773438 Z M 67.363281 172.4375 C 71.921875 175.863281 77.121094 179.058594 82.945312 181.96875 C 105.1875 193.089844 134.519531 199.21875 165.53125 199.21875 C 196.542969 199.21875 225.871094 193.089844 248.113281 181.96875 C 253.941406 179.058594 259.140625 175.863281 263.699219 172.4375 C 264.246094 174.367188 264.472656 176.351562 264.359375 178.21875 C 264.359375 178.230469 264.359375 178.25 264.355469 178.261719 C 263.0625 198.777344 222.84375 221.1875 165.53125 221.1875 C 148.078125 221.1875 132.214844 219.105469 118.542969 215.636719 C 117.972656 215.472656 117.398438 215.300781 116.824219 215.144531 C 100.253906 210.738281 76.132812 200.777344 68.679688 185.398438 C 66.613281 181.140625 66.101562 176.871094 67.363281 172.4375 Z M 66.714844 134.457031 C 66.953125 134.578125 67.175781 134.699219 67.414062 134.816406 C 93.804688 148.011719 128.648438 155.28125 165.53125 155.28125 C 202.410156 155.28125 237.253906 148.011719 263.648438 134.816406 C 263.882812 134.699219 264.113281 134.578125 264.34375 134.457031 C 262.890625 154.941406 222.722656 177.25 165.53125 177.25 C 108.34375 177.25 68.175781 154.941406 66.714844 134.457031 Z M 248.113281 225.910156 C 253.941406 222.996094 259.140625 219.800781 263.699219 216.375 C 264.15625 217.984375 264.390625 219.585938 264.390625 221.1875 C 264.390625 239.027344 233.730469 259.992188 183.742188 264.328125 C 179.207031 256.839844 173.65625 249.847656 167.167969 243.53125 C 167.03125 243.398438 166.886719 243.273438 166.746094 243.140625 C 197.308594 242.980469 226.164062 236.882812 248.113281 225.910156 Z M 44.703125 78.390625 C 44.703125 65.207031 56.605469 51.511719 77.355469 40.816406 C 100.902344 28.683594 132.214844 22 165.53125 22 C 198.847656 22 230.160156 28.683594 253.703125 40.816406 C 274.457031 51.511719 286.359375 65.207031 286.359375 78.390625 C 286.359375 91.421875 274.5 104.828125 253.824219 115.164062 C 230.421875 126.867188 199.066406 133.3125 165.53125 133.3125 C 131.996094 133.3125 100.636719 126.867188 77.238281 115.164062 C 56.5625 104.828125 44.703125 91.421875 44.703125 78.390625 Z M 44.703125 254.140625 C 44.703125 248.894531 46.550781 244.082031 49.300781 239.816406 C 57.945312 256.757812 78.410156 270.890625 107.621094 279.324219 C 125.082031 284.371094 129.789062 293.546875 131.726562 306.714844 C 131.726562 306.734375 131.730469 306.746094 131.734375 306.765625 C 82.015625 299.808594 44.703125 277.769531 44.703125 254.140625 Z M 330.296875 353 L 208.042969 353.074219 C 180.636719 353.074219 157.679688 332.1875 153.460938 303.519531 C 149.917969 279.421875 137.289062 265.03125 113.71875 258.222656 C 85.136719 249.964844 66.671875 235.429688 66.671875 221.1875 C 66.671875 219.585938 66.902344 217.984375 67.359375 216.371094 C 79.96875 225.847656 95.953125 232.332031 111.191406 236.382812 C 142.46875 244.714844 169.34375 269.246094 175.121094 303.417969 C 177.832031 319.414062 191.4375 331.03125 207.480469 331.03125 L 330.296875 330.953125 Z M 330.296875 353 " fill-opacity="1" fill-rule="nonzero"/></g></svg>